{"asset":{"generator":"glTF-Transform v4.0.2","version":"2.0"},"accessors":[{"type":"SCALAR","componentType":5126,"count":400,"max":[13.300000190734863],"min":[0],"bufferView":0,"byteOffset":0},{"type":"VEC4","componentType":5126,"count":400,"bufferView":0,"byteOffset":1600},{"type":"SCALAR","componentType":5126,"count":400,"max":[13.300000190734863],"min":[0],"bufferView":0,"byteOffset":8000},{"type":"VEC3","componentType":5126,"count":400,"bufferView":0,"byteOffset":9600},{"type":"SCALAR","componentType":5126,"count":400,"max":[13.300000190734863],"min":[0],"bufferView":0,"byteOffset":14400},{"type":"VEC3","componentType":5126,"count":400,"bufferView":0,"byteOffset":16000},{"type":"SCALAR","componentType":5126,"count":400,"max":[13.300000190734863],"min":[0],"bufferView":0,"byteOffset":20800},{"type":"VEC3","componentType":5126,"count":400,"bufferView":0,"byteOffset":22400},{"type":"SCALAR","componentType":5126,"count":400,"max":[13.300000190734863],"min":[0],"bufferView":0,"byteOffset":27200},{"type":"VEC3","componentType":5126,"count":400,"bufferView":0,"byteOffset":28800},{"type":"SCALAR","componentType":5123,"count":27216,"bufferView":1,"byteOffset":0},{"type":"SCALAR","componentType":5123,"count":27216,"bufferView":1,"byteOffset":54432},{"type":"SCALAR","componentType":5123,"count":4944,"bufferView":1,"byteOffset":108864},{"type":"SCALAR","componentType":5123,"count":29472,"bufferView":1,"byteOffset":118752},{"type":"SCALAR","componentType":5123,"count":21024,"bufferView":1,"byteOffset":177696},{"type":"SCALAR","componentType":5123,"count":8304,"bufferView":1,"byteOffset":219744},{"type":"SCALAR","componentType":5123,"count":2628,"bufferView":1,"byteOffset":236352},{"type":"VEC3","componentType":5126,"count":6160,"max":[194.29888916015625,194.29893493652344,146.93055725097656],"min":[-194.29891967773438,-194.2988739013672,54.38203048706055],"bufferView":2,"byteOffset":0},{"type":"VEC3","componentType":5126,"count":6160,"bufferView":3,"byteOffset":0},{"type":"VEC2","componentType":5126,"count":6160,"bufferView":4,"byteOffset":0},{"type":"VEC4","componentType":5123,"count":6160,"bufferView":5,"byteOffset":0},{"type":"VEC4","componentType":5126,"count":6160,"bufferView":6,"byteOffset":0},{"type":"VEC3","componentType":5126,"count":6160,"max":[172.6543731689453,172.6544189453125,133.5436248779297],"min":[-172.6544647216797,-172.65438842773438,40.99509811401367],"bufferView":7,"byteOffset":0},{"type":"VEC3","componentType":5126,"count":6160,"bufferView":8,"byteOffset":0},{"type":"VEC2","componentType":5126,"count":6160,"bufferView":9,"byteOffset":0},{"type":"VEC4","componentType":5123,"count":6160,"bufferView":10,"byteOffset":0},{"type":"VEC4","componentType":5126,"count":6160,"bufferView":11,"byteOffset":0},{"type":"VEC3","componentType":5126,"count":1912,"max":[223.79214477539062,223.9657440185547,258.62652587890625],"min":[-223.78598022460938,-224.03024291992188,196.3875732421875],"bufferView":12,"byteOffset":0},{"type":"VEC3","componentType":5126,"count":1912,"bufferView":13,"byteOffset":0},{"type":"VEC2","componentType":5126,"count":1912,"bufferView":14,"byteOffset":0},{"type":"VEC4","componentType":5123,"count":1912,"bufferView":15,"byteOffset":0},{"type":"VEC4","componentType":5126,"count":1912,"bufferView":16,"byteOffset":0},{"type":"VEC3","componentType":5126,"count":8909,"max":[226.14175415039062,225.6442413330078,254.07046508789062],"min":[-226.14175415039062,-225.6442413330078,26.018474578857422],"bufferView":17,"byteOffset":0},{"type":"VEC3","componentType":5126,"count":8909,"bufferView":18,"byteOffset":0},{"type":"VEC2","componentType":5126,"count":8909,"bufferView":19,"byteOffset":0},{"type":"VEC4","componentType":5123,"count":8909,"bufferView":20,"byteOffset":0},{"type":"VEC4","componentType":5126,"count":8909,"bufferView":21,"byteOffset":0},{"type":"VEC3","componentType":5126,"count":7304,"max":[224.1248779296875,225.40379333496094,255.96981811523438],"min":[-224.12490844726562,-225.40379333496094,56.285396575927734],"bufferView":22,"byteOffset":0},{"type":"VEC3","componentType":5126,"count":7304,"bufferView":23,"byteOffset":0},{"type":"VEC2","componentType":5126,"count":7304,"bufferView":24,"byteOffset":0},{"type":"VEC4","componentType":5123,"count":7304,"bufferView":25,"byteOffset":0},{"type":"VEC4","componentType":5126,"count":7304,"bufferView":26,"byteOffset":0},{"type":"VEC3","componentType":5126,"count":2199,"max":[230.81597900390625,230.8158721923828,41],"min":[-230.8159637451172,-230.81588745117188,4.9992828369140625],"bufferView":27,"byteOffset":0},{"type":"VEC3","componentType":5126,"count":2199,"bufferView":28,"byteOffset":0},{"type":"VEC2","componentType":5126,"count":2199,"bufferView":29,"byteOffset":0},{"type":"VEC4","componentType":5123,"count":2199,"bufferView":30,"byteOffset":0},{"type":"VEC4","componentType":5126,"count":2199,"bufferView":31,"byteOffset":0},{"type":"VEC3","componentType":5126,"count":762,"max":[217.66526794433594,218.87481689453125,395.8836975097656],"min":[-217.66531372070312,-218.87472534179688,244.68666076660156],"bufferView":32,"byteOffset":0},{"type":"VEC3","componentType":5126,"count":762,"bufferView":33,"byteOffset":0},{"type":"VEC2","componentType":5126,"count":762,"bufferView":34,"byteOffset":0},{"type":"VEC4","componentType":5123,"count":762,"bufferView":35,"byteOffset":0},{"type":"VEC4","componentType":5126,"count":762,"bufferView":36,"byteOffset":0},{"type":"MAT4","componentType":5126,"count":7,"bufferView":37,"byteOffset":0},{"type":"MAT4","componentType":5126,"count":7,"bufferView":37,"byteOffset":448},{"type":"MAT4","componentType":5126,"count":7,"bufferView":37,"byteOffset":896},{"type":"MAT4","componentType":5126,"count":7,"bufferView":37,"byteOffset":1344},{"type":"MAT4","componentType":5126,"count":7,"bufferView":37,"byteOffset":1792},{"type":"MAT4","componentType":5126,"count":7,"bufferView":37,"byteOffset":2240},{"type":"MAT4","componentType":5126,"count":7,"bufferView":37,"byteOffset":2688}],"bufferViews":[{"buffer":0,"byteOffset":0,"byteLength":33600},{"buffer":0,"byteOffset":33600,"byteLength":241608,"target":34963},{"buffer":0,"byteOffset":275208,"byteLength":73920,"byteStride":12,"target":34962},{"buffer":0,"byteOffset":349128,"byteLength":73920,"byteStride":12,"target":34962},{"buffer":0,"byteOffset":423048,"byteLength":49280,"byteStride":8,"target":34962},{"buffer":0,"byteOffset":472328,"byteLength":49280,"byteStride":8,"target":34962},{"buffer":0,"byteOffset":521608,"byteLength":98560,"byteStride":16,"target":34962},{"buffer":0,"byteOffset":620168,"byteLength":73920,"byteStride":12,"target":34962},{"buffer":0,"byteOffset":694088,"byteLength":73920,"byteStride":12,"target":34962},{"buffer":0,"byteOffset":768008,"byteLength":49280,"byteStride":8,"target":34962},{"buffer":0,"byteOffset":817288,"byteLength":49280,"byteStride":8,"target":34962},{"buffer":0,"byteOffset":866568,"byteLength":98560,"byteStride":16,"target":34962},{"buffer":0,"byteOffset":965128,"byteLength":22944,"byteStride":12,"target":34962},{"buffer":0,"byteOffset":988072,"byteLength":22944,"byteStride":12,"target":34962},{"buffer":0,"byteOffset":1011016,"byteLength":15296,"byteStride":8,"target":34962},{"buffer":0,"byteOffset":1026312,"byteLength":15296,"byteStride":8,"target":34962},{"buffer":0,"byteOffset":1041608,"byteLength":30592,"byteStride":16,"target":34962},{"buffer":0,"byteOffset":1072200,"byteLength":106908,"byteStride":12,"target":34962},{"buffer":0,"byteOffset":1179108,"byteLength":106908,"byteStride":12,"target":34962},{"buffer":0,"byteOffset":1286016,"byteLength":71272,"byteStride":8,"target":34962},{"buffer":0,"byteOffset":1357288,"byteLength":71272,"byteStride":8,"target":34962},{"buffer":0,"byteOffset":1428560,"byteLength":142544,"byteStride":16,"target":34962},{"buffer":0,"byteOffset":1571104,"byteLength":87648,"byteStride":12,"target":34962},{"buffer":0,"byteOffset":1658752,"byteLength":87648,"byteStride":12,"target":34962},{"buffer":0,"byteOffset":1746400,"byteLength":58432,"byteStride":8,"target":34962},{"buffer":0,"byteOffset":1804832,"byteLength":58432,"byteStride":8,"target":34962},{"buffer":0,"byteOffset":1863264,"byteLength":116864,"byteStride":16,"target":34962},{"buffer":0,"byteOffset":1980128,"byteLength":26388,"byteStride":12,"target":34962},{"buffer":0,"byteOffset":2006516,"byteLength":26388,"byteStride":12,"target":34962},{"buffer":0,"byteOffset":2032904,"byteLength":17592,"byteStride":8,"target":34962},{"buffer":0,"byteOffset":2050496,"byteLength":17592,"byteStride":8,"target":34962},{"buffer":0,"byteOffset":2068088,"byteLength":35184,"byteStride":16,"target":34962},{"buffer":0,"byteOffset":2103272,"byteLength":9144,"byteStride":12,"target":34962},{"buffer":0,"byteOffset":2112416,"byteLength":9144,"byteStride":12,"target":34962},{"buffer":0,"byteOffset":2121560,"byteLength":6096,"byteStride":8,"target":34962},{"buffer":0,"byteOffset":2127656,"byteLength":6096,"byteStride":8,"target":34962},{"buffer":0,"byteOffset":2133752,"byteLength":12192,"byteStride":16,"target":34962},{"buffer":0,"byteOffset":2145944,"byteLength":3136}],"samplers":[{"magFilter":9729,"minFilter":9729,"wrapS":10497,"wrapT":10497}],"textures":[{"source":0,"sampler":0},{"source":1,"sampler":0},{"source":2,"sampler":0},{"source":3,"sampler":0},{"source":4,"sampler":0},{"source":5,"sampler":0},{"source":6,"sampler":0},{"source":7,"sampler":0},{"source":8,"sampler":0},{"source":9,"sampler":0}],"images":[{"mimeType":"image/jpeg","uri":"baseColor_1.jpg"},{"mimeType":"image/jpeg","uri":"normal_1.jpg"},{"mimeType":"image/jpeg","uri":"baseColor_2.jpg"},{"mimeType":"image/jpeg","uri":"baseColor_3.jpg"},{"mimeType":"image/jpeg","uri":"normal_2.jpg"},{"mimeType":"image/jpeg","uri":"baseColor_4.jpg"},{"mimeType":"image/jpeg","uri":"normal_3.jpg"},{"mimeType":"image/jpeg","uri":"baseColor_5.jpg"},{"mimeType":"image/jpeg","uri":"normal_4.jpg"},{"mimeType":"image/jpeg","uri":"baseColor_6.jpg"}],"buffers":[{"uri":"carousel.bin","byteLength":2149080}],"materials":[{"name":"M_05_Circus_Carousel_06","pbrMetallicRoughness":{"baseColorFactor":[0.5879999995231628,0.5879999995231628,0.5879999995231628,1],"baseColorTexture":{"index":0}},"normalTexture":{"index":1}},{"name":"M_05_Circus_Carousel_05","pbrMetallicRoughness":{"baseColorFactor":[0.5879999995231628,0.5879999995231628,0.5879999995231628,1],"baseColorTexture":{"index":2}},"normalTexture":{"index":1}},{"name":"M_05_Circus_Carousel_02","pbrMetallicRoughness":{"baseColorFactor":[0.5879999995231628,0.5879999995231628,0.5879999995231628,1],"baseColorTexture":{"index":3}},"normalTexture":{"index":4}},{"name":"M_05_Circus_Carousel_03","pbrMetallicRoughness":{"baseColorFactor":[0.5879999995231628,0.5879999995231628,0.5879999995231628,1],"baseColorTexture":{"index":5}},"normalTexture":{"index":6}},{"name":"M_05_Circus_Lit","pbrMetallicRoughness":{"baseColorFactor":[1,0,0,1]}},{"name":"M_05_Circus_Carousel_04","pbrMetallicRoughness":{"baseColorFactor":[0.5879999995231628,0.5879999995231628,0.5879999995231628,1],"baseColorTexture":{"index":7}},"normalTexture":{"index":8}},{"name":"M_05_Circus_Carousel_01","pbrMetallicRoughness":{"baseColorFactor":[0.5879999995231628,0.5879999995231628,0.5879999995231628,1],"baseColorTexture":{"index":9}}}],"meshes":[{"name":"circus_carousel_spinning_2-M_05_Circus_Carousel_06","primitives":[{"attributes":{"POSITION":17,"NORMAL":18,"TEXCOORD_0":19,"JOINTS_0":20,"WEIGHTS_0":21},"mode":4,"material":0,"indices":10}]},{"name":"circus_carousel_spinning_2-M_05_Circus_Carousel_05","primitives":[{"attributes":{"POSITION":22,"NORMAL":23,"TEXCOORD_0":24,"JOINTS_0":25,"WEIGHTS_0":26},"mode":4,"material":1,"indices":11}]},{"name":"circus_carousel_spinning_2-M_05_Circus_Carousel_02","primitives":[{"attributes":{"POSITION":27,"NORMAL":28,"TEXCOORD_0":29,"JOINTS_0":30,"WEIGHTS_0":31},"mode":4,"material":2,"indices":12}]},{"name":"circus_carousel_spinning_2-M_05_Circus_Carousel_03","primitives":[{"attributes":{"POSITION":32,"NORMAL":33,"TEXCOORD_0":34,"JOINTS_0":35,"WEIGHTS_0":36},"mode":4,"material":3,"indices":13}]},{"name":"circus_carousel_spinning_2-M_05_Circus_Lit","primitives":[{"attributes":{"POSITION":37,"NORMAL":38,"TEXCOORD_0":39,"JOINTS_0":40,"WEIGHTS_0":41},"mode":4,"material":4,"indices":14}]},{"name":"circus_carousel_spinning_2-M_05_Circus_Carousel_04","primitives":[{"attributes":{"POSITION":42,"NORMAL":43,"TEXCOORD_0":44,"JOINTS_0":45,"WEIGHTS_0":46},"mode":4,"material":5,"indices":15}]},{"name":"circus_carousel_spinning_2-M_05_Circus_Carousel_01","primitives":[{"attributes":{"POSITION":47,"NORMAL":48,"TEXCOORD_0":49,"JOINTS_0":50,"WEIGHTS_0":51},"mode":4,"material":6,"indices":16}]}],"nodes":[{"name":"circus_carousel_spinning","translation":[0,3.6334447860717773,0],"rotation":[1.0032269476936264e-16,-9.972452407247859e-17,0.7049892544746399,0.7092179656028748],"children":[1]},{"name":"joint1","translation":[171.36349487304688,1.024993896484375,-3.392101892450351e-29],"rotation":[0,0,0.0029906630516052246,0.9999955296516418],"children":[2,3,4,5,6]},{"name":"joint2","translation":[160,3.895814538481222e-15,-1.1170986451679039e-14],"rotation":[4.843902843276737e-7,4.843902843276737e-7,0.7071067690849304,-0.7071067690849304]},{"name":"joint3","translation":[-1.4210854715202004e-13,120,6.310887241768095e-30],"rotation":[-5.351843697098957e-7,-4.931083541492853e-9,-0.0031055514700710773,0.9999951720237732]},{"name":"joint4","translation":[-5.684341886080802e-14,-1,122],"rotation":[6.817919029344921e-7,-1.7763568394002505e-15,-1.2111057098253967e-21,-1]},{"name":"joint5","translation":[0,8.470329472543003e-22,-180],"rotation":[6.817919029344921e-7,-1.7763568394002505e-15,-1.2111057098253967e-21,-1]},{"name":"joint6","translation":[0,-180,2.2479594008473214e-7],"rotation":[6.817919029344921e-7,-1.7763568394002505e-15,-1.2111057098253967e-21,-1]},{"name":"circus_carousel_spinning_2","rotation":[0.7071067690849304,0,0,-0.7071067690849304],"children":[8,10,12,14,16,18,20]},{"name":"circus_carousel_spinning_2-M_05_Circus_Carousel_06","rotation":[0,0,0,-1],"children":[9]},{"name":"circus_carousel_spinning_2-M_05_Circus_Carousel_06","mesh":0,"skin":0},{"name":"circus_carousel_spinning_2-M_05_Circus_Carousel_05","rotation":[0,0,0,-1],"children":[11]},{"name":"circus_carousel_spinning_2-M_05_Circus_Carousel_05","mesh":1,"skin":1},{"name":"circus_carousel_spinning_2-M_05_Circus_Carousel_02","rotation":[0,0,0,-1],"children":[13]},{"name":"circus_carousel_spinning_2-M_05_Circus_Carousel_02","mesh":2,"skin":3},{"name":"circus_carousel_spinning_2-M_05_Circus_Carousel_03","rotation":[0,0,0,-1],"children":[15]},{"name":"circus_carousel_spinning_2-M_05_Circus_Carousel_03","mesh":3,"skin":4},{"name":"circus_carousel_spinning_2-M_05_Circus_Lit","rotation":[0,0,0,-1],"children":[17]},{"name":"circus_carousel_spinning_2-M_05_Circus_Lit","mesh":4,"skin":2},{"name":"circus_carousel_spinning_2-M_05_Circus_Carousel_04","rotation":[0,0,0,-1],"children":[19]},{"name":"circus_carousel_spinning_2-M_05_Circus_Carousel_04","mesh":5,"skin":5},{"name":"circus_carousel_spinning_2-M_05_Circus_Carousel_01","rotation":[0,0,0,-1],"children":[21]},{"name":"circus_carousel_spinning_2-M_05_Circus_Carousel_01","mesh":6,"skin":6}],"skins":[{"inverseBindMatrices":52,"joints":[0,2,1,5,6,3,4]},{"inverseBindMatrices":53,"joints":[0,2,1,5,6,3,4]},{"inverseBindMatrices":54,"joints":[0,2,1,5,6,3,4]},{"inverseBindMatrices":55,"joints":[0,2,1,5,6,3,4]},{"inverseBindMatrices":56,"joints":[0,2,1,5,6,3,4]},{"inverseBindMatrices":57,"joints":[0,2,1,5,6,3,4]},{"inverseBindMatrices":58,"joints":[0,2,1,5,6,3,4]}],"animations":[{"samplers":[{"input":0,"output":1,"interpolation":"LINEAR"},{"input":2,"output":3,"interpolation":"LINEAR"},{"input":4,"output":5,"interpolation":"LINEAR"},{"input":6,"output":7,"interpolation":"LINEAR"},{"input":8,"output":9,"interpolation":"LINEAR"}],"channels":[{"sampler":0,"target":{"node":1,"path":"rotation"}},{"sampler":1,"target":{"node":3,"path":"translation"}},{"sampler":2,"target":{"node":4,"path":"translation"}},{"sampler":3,"target":{"node":5,"path":"translation"}},{"sampler":4,"target":{"node":6,"path":"translation"}}]}],"scenes":[{"nodes":[0,7]}]}